Coordinates
version=1
nRows=32
nColumns=12
inDegrees=yes

Units are S.I. units (second, meters, Newtons, ...)
Angles are in degrees

endheader
time	SC_y	SC_z	SC_x	AC_y	AC_z	AC_x	GH_y	GH_z	GH_yy	EL_x	PS_y
       0.0              -42.57          32.35          24.02          42.99         -7.132          1.574          40.45          19.76          68.88           38.8          20.14
   0.02226              -42.57          32.35          24.03          42.99         -7.132          1.576          40.42          19.75          68.85           38.8          20.15
   0.04453              -42.57          32.34          24.03          42.99         -7.133          1.579           40.4          19.75          68.82          38.81          20.16
   0.06679              -42.56          32.34          24.04          42.99         -7.133          1.581          40.37          19.75          68.79          38.81          20.17
   0.08905              -42.56          32.33          24.05          42.99         -7.133          1.584          40.34          19.75          68.75          38.82          20.18
    0.1113              -42.56          32.33          24.05          42.98         -7.134          1.587          40.31          19.74          68.71          38.82          20.19
    0.1336              -42.56          32.32          24.06          42.98         -7.134           1.59          40.28          19.74          68.67          38.83           20.2
    0.1558              -42.55          32.31          24.07          42.98         -7.135          1.593          40.24          19.73          68.63          38.84          20.22
    0.1781              -42.55          32.31          24.08          42.98         -7.135          1.597           40.2          19.73          68.58          38.84          20.23
    0.2004              -42.55           32.3          24.09          42.97         -7.136            1.6          40.16          19.72          68.53          38.85          20.25
    0.2226              -42.54          32.29           24.1          42.97         -7.136          1.605          40.12          19.72          68.48          38.86          20.26
    0.2449              -42.54          32.28          24.11          42.97         -7.137          1.609          40.07          19.71          68.43          38.87          20.28
    0.2672              -42.53          32.27          24.12          42.96         -7.137          1.614          40.02          19.71          68.36          38.88           20.3
    0.2894              -42.53          32.26          24.13          42.96         -7.138          1.619          39.96           19.7           68.3          38.89          20.32
    0.3117              -42.52          32.25          24.15          42.96         -7.139          1.624           39.9          19.69          68.23           38.9          20.34
    0.3339              -42.52          32.24          24.16          42.95          -7.14           1.63          39.84          19.69          68.15          38.91          20.36
    0.3562              -42.51          32.22          24.18          42.95         -7.141          1.636          39.77          19.68          68.06          38.92          20.39
    0.3785              -42.51          32.21           24.2          42.94         -7.142          1.643          39.69          19.67          67.97          38.94          20.42
    0.4007               -42.5          32.19          24.22          42.94         -7.143          1.651          39.61          19.66          67.87          38.95          20.45
     0.423              -42.49          32.17          24.24          42.93         -7.144           1.66          39.51          19.65          67.76          38.97          20.48
    0.4453              -42.48          32.16          24.26          42.92         -7.145          1.669          39.41          19.64          67.64          38.99          20.52
    0.4675              -42.47          32.13          24.29          42.91         -7.146          1.679           39.3          19.63          67.51          39.01          20.56
    0.4898              -42.46          32.11          24.32          42.91         -7.148           1.69          39.18          19.61          67.36          39.03           20.6
    0.5121              -42.45          32.08          24.35           42.9          -7.15          1.703          39.04           19.6           67.2          39.06          20.65
    0.5343              -42.44          32.06          24.38          42.89         -7.152          1.716          38.89          19.58          67.02          39.08          20.71
    0.5566              -42.42          32.02          24.42          42.88         -7.154          1.732          38.72          19.56          66.82          39.11          20.77
    0.5788              -42.41          31.99          24.47          42.86         -7.156          1.749          38.53          19.54          66.59          39.15          20.84
    0.6011              -42.39          31.95          24.52          42.85         -7.159          1.768          38.32          19.51          66.34          39.19          20.91
    0.6234              -42.37           31.9          24.57          42.83         -7.162           1.79          38.08          19.49          66.05          39.23           21.0
    0.6456              -42.35          31.85          24.64          42.81         -7.165          1.815          37.81          19.45          65.72          39.28           21.1
    0.6679              -42.32          31.79          24.71          42.79         -7.169          1.844          37.49          19.42          65.35          39.34          21.21
    0.6902              -42.29          31.72          24.79          42.77         -7.174          1.876          37.14          19.38          64.92           39.4          21.34
